<svg width="22" height="22" viewBox="0 0 22 22" fill="none" xmlns="http://www.w3.org/2000/svg">
<path d="M19.0476 6.8706C19.0564 7.0488 19.0597 7.2292 19.0597 7.4074C19.0597 12.8964 14.883 19.2236 7.2457 19.2236C4.8994 19.2236 2.7181 18.5361 0.880005 17.3569C1.96722 17.4884 3.06968 17.4043 4.12439 17.1095C5.17909 16.8147 6.16535 16.3149 7.0268 15.6387C6.16046 15.6223 5.3209 15.3356 4.62548 14.8187C3.93007 14.3018 3.41357 13.5805 3.1482 12.7556C3.77087 12.872 4.41171 12.8476 5.0237 12.6841C4.08388 12.4935 3.23884 11.9839 2.63181 11.2415C2.02477 10.4992 1.69306 9.56975 1.6929 8.6108V8.5591C2.26952 8.87986 2.91442 9.05824 3.57391 9.0794C2.69377 8.49264 2.07073 7.59211 1.83196 6.56161C1.5932 5.53112 1.7567 4.44835 2.28911 3.5343C3.33167 4.81741 4.63249 5.86685 6.10707 6.61447C7.58165 7.36208 9.197 7.79115 10.8482 7.8738C10.7768 7.56318 10.741 7.24543 10.7415 6.9267C10.7415 6.38158 10.8489 5.8418 11.0575 5.33819C11.2662 4.83458 11.572 4.37701 11.9575 3.99161C12.343 3.6062 12.8007 3.30051 13.3043 3.09201C13.808 2.8835 14.3478 2.77625 14.8929 2.7764C15.461 2.77547 16.0233 2.89128 16.5447 3.11665C17.0662 3.34201 17.5359 3.67212 17.9245 4.0865C18.8542 3.90247 19.7458 3.56175 20.5612 3.0789C20.2511 4.04052 19.6022 4.85674 18.7352 5.3757C19.5583 5.27812 20.3621 5.05788 21.12 4.7223C20.5632 5.55658 19.8613 6.28421 19.0476 6.8706V6.8706Z" fill="#B6B4B2"/>
</svg>
